<?xml version="1.0" encoding="UTF-8" standalone="no"?>
<svg
   viewBox="0 0 1080 1080"
   width="256"
   height="256"
   style="width: 100%; height: 100%; transform: translate3d(0px, 0px, 0px);"
   preserveAspectRatio="xMidYMid meet"
   version="1.1"
   id="svg174"
   sodipodi:docname="splash.svg"
   inkscape:version="1.2.2 (732a01da63, 2022-12-09)"
   xmlns:inkscape="http://www.inkscape.org/namespaces/inkscape"
   xmlns:sodipodi="http://sodipodi.sourceforge.net/DTD/sodipodi-0.dtd"
   xmlns="http://www.w3.org/2000/svg"
   xmlns:svg="http://www.w3.org/2000/svg">
  <sodipodi:namedview
     id="namedview176"
     pagecolor="#ffffff"
     bordercolor="#000000"
     borderopacity="0.25"
     inkscape:showpageshadow="2"
     inkscape:pageopacity="0.0"
     inkscape:pagecheckerboard="0"
     inkscape:deskcolor="#d1d1d1"
     showgrid="false"
     inkscape:zoom="1.6191406"
     inkscape:cx="25.322075"
     inkscape:cy="140.19783"
     inkscape:window-width="1920"
     inkscape:window-height="1009"
     inkscape:window-x="-8"
     inkscape:window-y="-8"
     inkscape:window-maximized="1"
     inkscape:current-layer="svg174" />
  <defs
     id="defs96">
    <rect
       x="52.496985"
       y="184.04825"
       width="155.63812"
       height="29.027745"
       id="rect256" />
    <rect
       x="33.968637"
       y="197.0181"
       width="169.22558"
       height="27.792522"
       id="rect250" />
    <clipPath
       id="__lottie_element_2">
      <rect
         width="1080"
         height="1080"
         x="0"
         y="0"
         id="rect90" />
    </clipPath>
    <clipPath
       id="__lottie_element_4">
      <path
         d="M0,0 L1080,0 L1080,1080 L0,1080z"
         id="path93" />
    </clipPath>
  </defs>
  <g
     clip-path="url(#__lottie_element_2)"
     id="g172"
     transform="translate(165.45236,70.349819)">
    <g
       clip-path="url(#__lottie_element_4)"
       style="display:block"
       transform="matrix(1.13,0,0,1.13,-197.20001,-70.200012)"
       opacity="1"
       id="g170">
      <g
         style="display:block"
         transform="translate(1103.6439,583.37701)"
         opacity="1"
         id="g102">
        <g
           opacity="1"
           transform="translate(24.535,24.535999)"
           id="g100">
          <path
             fill="#d25ca2"
             fill-opacity="1"
             d="M 24.285999,0 C 24.285999,13.413 13.413,24.285999 0,24.285999 -13.412,24.285999 -24.285999,13.413 -24.285999,0 -24.285999,-13.413 -13.412,-24.285999 0,-24.285999 13.413,-24.285999 24.285999,-13.413 24.285999,0 Z"
             id="path98" />
        </g>
      </g>
      <g
         style="display:none"
         transform="translate(1073.3099,487.86737)"
         opacity="1"
         id="g108">
        <g
           opacity="1"
           transform="translate(24.535,24.535999)"
           id="g106">
          <path
             fill="#d25ca2"
             fill-opacity="1"
             d="M 24.285999,0 C 24.285999,13.413 13.413,24.285999 0,24.285999 -13.412,24.285999 -24.285999,13.413 -24.285999,0 -24.285999,-13.413 -13.412,-24.285999 0,-24.285999 13.413,-24.285999 24.285999,-13.413 24.285999,0 Z"
             id="path104" />
        </g>
      </g>
      <g
         style="display:none"
         transform="translate(1071.6381,487.89941)"
         opacity="1"
         id="g114">
        <g
           opacity="1"
           transform="translate(24.535,24.535999)"
           id="g112">
          <path
             fill="#d25ca2"
             fill-opacity="1"
             d="M 24.285999,0 C 24.285999,13.413 13.413,24.285999 0,24.285999 -13.412,24.285999 -24.285999,13.413 -24.285999,0 -24.285999,-13.413 -13.412,-24.285999 0,-24.285999 13.413,-24.285999 24.285999,-13.413 24.285999,0 Z"
             id="path110" />
        </g>
      </g>
      <g
         style="display:block"
         transform="translate(1091.3579,387.841)"
         opacity="1"
         id="g120">
        <g
           opacity="1"
           transform="translate(24.535,24.535999)"
           id="g118">
          <path
             fill="#d25ca2"
             fill-opacity="1"
             d="M 24.285999,0 C 24.285999,13.413 13.413,24.285999 0,24.285999 -13.412,24.285999 -24.285999,13.413 -24.285999,0 -24.285999,-13.413 -13.412,-24.285999 0,-24.285999 13.413,-24.285999 24.285999,-13.413 24.285999,0 Z"
             id="path116" />
        </g>
      </g>
      <g
         style="display:none"
         transform="translate(1074.0947,306.56931)"
         opacity="1"
         id="g126">
        <g
           opacity="1"
           transform="translate(24.535,24.535999)"
           id="g124">
          <path
             fill="#d25ca2"
             fill-opacity="1"
             d="M 24.285999,0 C 24.285999,13.413 13.413,24.285999 0,24.285999 -13.412,24.285999 -24.285999,13.413 -24.285999,0 -24.285999,-13.413 -13.412,-24.285999 0,-24.285999 13.413,-24.285999 24.285999,-13.413 24.285999,0 Z"
             id="path122" />
        </g>
      </g>
      <g
         style="display:none"
         transform="translate(1072.8275,306.59601)"
         opacity="1"
         id="g132">
        <g
           opacity="1"
           transform="translate(24.535,24.535999)"
           id="g130">
          <path
             fill="#d25ca2"
             fill-opacity="1"
             d="M 24.285999,0 C 24.285999,13.413 13.413,24.285999 0,24.285999 -13.412,24.285999 -24.285999,13.413 -24.285999,0 -24.285999,-13.413 -13.412,-24.285999 0,-24.285999 13.413,-24.285999 24.285999,-13.413 24.285999,0 Z"
             id="path128" />
        </g>
      </g>
      <g
         style="display:block"
         transform="translate(428.64203,582.92902)"
         opacity="1"
         id="g138">
        <g
           opacity="1"
           transform="translate(160.494,25.983999)"
           id="g136">
          <path
             stroke-linecap="round"
             stroke-linejoin="miter"
             fill-opacity="0"
             stroke-miterlimit="10"
             stroke="#d35ca2"
             stroke-opacity="1"
             stroke-width="51"
             d="m -134.994,-0.48500001 c 0,0 269.988,0.97000002 269.988,0.97000002"
             id="path134" />
        </g>
      </g>
      <g
         style="display:block"
         transform="translate(473.21399,494.41803)"
         opacity="1"
         id="g144">
        <g
           opacity="1"
           transform="translate(113.64,25.985001)"
           id="g142">
          <path
             stroke-linecap="round"
             stroke-linejoin="miter"
             fill-opacity="0"
             stroke-miterlimit="10"
             stroke="#d35ca2"
             stroke-opacity="1"
             stroke-width="51"
             d="m -88.139999,-0.48500001 c 0,0 176.279998,0.97000002 176.279998,0.97000002"
             id="path140" />
        </g>
      </g>
      <g
         style="display:block"
         transform="translate(463.797,405.81302)"
         opacity="1"
         id="g150">
        <g
           opacity="1"
           transform="translate(173.771,26.033001)"
           id="g148">
          <path
             stroke-linecap="round"
             stroke-linejoin="miter"
             fill-opacity="0"
             stroke-miterlimit="10"
             stroke="#d35ca2"
             stroke-opacity="1"
             stroke-width="51"
             d="m -148.271,-0.53299999 c 0,0 296.542,1.06599998 296.542,1.06599998"
             id="path146" />
        </g>
      </g>
      <g
         style="display:block"
         transform="translate(432.08301,317.246)"
         opacity="1"
         id="g156">
        <g
           opacity="1"
           transform="translate(160.494,25.985001)"
           id="g154">
          <path
             stroke-linecap="round"
             stroke-linejoin="miter"
             fill-opacity="0"
             stroke-miterlimit="10"
             stroke="#d35ca2"
             stroke-opacity="1"
             stroke-width="51"
             d="m -134.994,-0.48500001 c 0,0 269.988,0.97000002 269.988,0.97000002"
             id="path152" />
        </g>
      </g>
      <g
         style="display:block"
         transform="translate(329.45801,257.43799)"
         opacity="1"
         id="g162">
        <g
           opacity="1"
           transform="translate(125.343,192.89301)"
           id="g160">
          <path
             fill="#9f61a6"
             fill-opacity="1"
             d="m -125.092,-154.35699 c 0,0 93.713,-38.28602 127.428,20 0,0 46.291998,1.45399 46.291998,1.45399 0,0 25.410004,51.223999 25.410004,51.223999 0,0 -44.987001,1.751 -44.987001,1.751 0,0 7.284998,33.857002 7.284998,33.857002 0,0 55.276001,2.064998 55.276001,2.064998 0,0 12.918,50.953001 12.918,50.953001 0,0 -62.194001,1.4100004 -62.194001,1.4100004 0,0 0.428001,32.9999976 0.428001,32.9999976 0,0 70.352,3.116002 70.352,3.116002 0,0 7.614,51.069 7.614,51.069 0,0 -84.821999,0.244003 -84.821999,0.244003 0,0 -8.144001,34.286007 -8.144001,34.286007 0,0 97.328,3.026 97.328,3.026 0,0 -2.184,50.545 -2.184,50.545 0,0 -120.858,0 -120.858,0 0,0 -7.714,9 -7.714,9 0,0 -23.113,-154.868008 -24.708,-159.117009 C -31.309999,31.031 -38.710999,5.8179998 -42.595001,-3.1919999 -53.07,-27.490999 -76.656998,-113.902 -125.092,-154.35699 Z"
             id="path158" />
        </g>
      </g>
      <g
         style="display:block"
         transform="translate(189.95302,295.32101)"
         opacity="1"
         id="g168">
        <g
           opacity="1"
           transform="translate(129.717,198.81799)"
           id="g166">
          <path
             fill="#a993c5"
             fill-opacity="1"
             d="m 129.467,148.83501 c 0,0 -14.994,-279.11701 -116.009,-347.403 0,0 -15.994,0.11898 -35.069,12.47799 -80.288,52.02201 -107.855,156.368 -65.584999,242.192001 C -54.973,121.527 7.2309999,198.56799 129.467,148.83501 Z"
             id="path164" />
        </g>
      </g>
    </g>
  </g>
  <text
     xml:space="preserve"
     transform="scale(4.21875)"
     id="text248"
     style="fill:#000000;white-space:pre;shape-inside:url(#rect250)" />
  <text
     xml:space="preserve"
     transform="scale(4.21875)"
     id="text254"
     style="font-size:26.6667px;white-space:pre;shape-inside:url(#rect256);fill:#000000" />
  <text
     xml:space="preserve"
     style="font-size:77.8864px;fill:#512bd4;fill-opacity:0.84;stroke-width:4.17248;paint-order:markers stroke fill"
     x="136.99094"
     y="876.17084"
     id="text264"
     transform="scale(0.98903273,1.0110889)"><tspan
       style="font-style:normal;font-variant:normal;font-weight:bold;font-stretch:normal;font-size:122.393px;font-family:sans-serif;-inkscape-font-specification:'sans-serif, Bold';font-variant-ligatures:normal;font-variant-caps:normal;font-variant-numeric:normal;font-variant-east-asian:normal;fill:#512bd4;fill-opacity:0.83;stroke-width:4.17248;paint-order:markers stroke fill"
       x="136.99094"
       y="876.17084"
       sodipodi:role="line"
       id="tspan3735">_&gt;JELLY<tspan
   style="fill:#d35ca2;fill-opacity:1"
   id="tspan3741">FISH</tspan></tspan></text>
</svg>
